<?xml version="1.0" encoding="iso-8859-1"?>
<!-- Generator: Adobe Illustrator 19.0.0, SVG Export Plug-In . SVG Version: 6.00 Build 0)  -->
<svg version="1.1" id="Capa_1" xmlns="http://www.w3.org/2000/svg" xmlns:xlink="http://www.w3.org/1999/xlink" x="0px" y="0px"
	 viewBox="0 0 512 512" style="enable-background:new 0 0 512 512;" xml:space="preserve">
<g>
	<g>
		<path d="M256,0C114.833,0,0,114.833,0,256s114.833,256,256,256s256-114.833,256-256S397.167,0,256,0z M405.333,352
			c0,17.646-14.354,32-32,32c-17.646,0-32-14.354-32-32v-64h-64v64c0,17.646-14.354,32-32,32c-17.646,0-32-14.354-32-32v-64h-42.667
			v64c0,17.646-14.354,32-32,32c-17.646,0-32-14.354-32-32v-96c0-17.646,14.354-32,32-32h74.667v-64c0-17.646,14.354-32,32-32
			c17.646,0,32,14.354,32,32v64h64v-64c0-17.646,14.354-32,32-32c17.646,0,32,14.354,32,32V352z"/>
	</g>
</g>
<g>
</g>
<g>
</g>
<g>
</g>
<g>
</g>
<g>
</g>
<g>
</g>
<g>
</g>
<g>
</g>
<g>
</g>
<g>
</g>
<g>
</g>
<g>
</g>
<g>
</g>
<g>
</g>
<g>
</g>
</svg>
