<svg height="512pt" preserveAspectRatio="xMidYMid meet" viewBox="0 0 512 512" width="512pt" xmlns="http://www.w3.org/2000/svg"><path d="m2123 5021c-102-38-199-124-248-221-46-92-55-160-55-457 0-277 4-313 39-330 9-4 241-10 515-13l500-5-700-157c-766-173-738-164-732-236 2-24 11-41 28-53 23-17 70-19 585-29 308-5 623-10 699-10 77 0 137-2 135-4-2-3-317-70-700-150-382-80-703-148-712-152-24-9-37-36-37-78 0-69-29-66 741-92 380-13 693-25 695-26 2-2-308-63-689-136-486-93-699-138-717-151-44-32-39-111 7-129 16-6 337-25 715-44 378-18 685-34 683-37-3-2-319-60-702-127-670-118-699-124-721-149-16-19-20-33-16-53 15-64-23-58 744-112 387-28 706-53 709-55 2-3 0-5-6-5s-323-50-704-110c-638-102-696-113-718-134-20-20-22-30-17-60 4-22 16-42 31-52 19-12 173-28 709-73 377-31 687-59 690-62 3-2-308-49-691-104-566-80-699-102-719-118-47-36-23-118 38-132 13-2 451-45 973-95 523-49 971-93 998-96l47-6v-242c0-268-5-301-59-380-37-54-113-101-177-111-142-21-283 105-302 269-10 80-30 106-82 106-65 0-86-43-70-146 23-148 121-284 249-347 61-30 72-32 171-32s109 2 172 34c79 39 163 123 203 200 47 93 55 160 55 464v279l-27 27-28 27-724 69c-474 46-715 72-695 77 16 4 333 51 704 103s692 100 712 105c43 12 61 38 56 82-7 67 18 63-766 126-391 31-708 59-704 63 4 3 327 57 717 119 391 61 718 116 728 122 48 25 34 115-21 136-15 6-335 29-712 52s-693 45-703 49c-10 3 290 62 690 135 389 71 718 132 731 137 48 18 54 94 9 123-17 12-173 22-740 50-395 19-720 36-722 38-2 1 317 66 708 142 392 77 723 144 737 150 31 14 54 60 46 92-14 54 2 53-765 78-391 13-714 25-716 28-2 2 309 70 693 152 383 81 712 152 730 157 32 10 62 51 62 83 0 8-11 27-24 42l-23 28-716 11c-394 6-718 13-721 16-2 2 309 76 692 163 383 88 712 163 730 168 68 19 76 113 12 145-20 10-203 13-838 13h-813l3 253c3 242 4 254 27 297 56 107 139 164 241 164 76 0 126-22 181-81 52-54 69-93 79-179 10-93 27-116 83-112 30 2 45 10 60 31 19 25 20 33 10 101-15 104-59 193-134 272-86 89-147 117-264 121-70 3-101-1-142-16z" transform="matrix(.1 0 0 -.1 0 512)"/></svg>